<?xml version="1.0" ?><svg height="48" viewBox="0 0 48 48" width="48" xmlns="http://www.w3.org/2000/svg"><defs><style>.cls-1{fill:#49aaee;}.cls-2{fill:#f1f2f2;}</style></defs><title/><g data-name="9-Messager" id="_9-Messager"><g data-name="&lt;Group&gt;" id="_Group_"><path class="cls-1" d="M24,4c12.7,0,23,8.95,23,20S36.7,44,24,44a25.538,25.538,0,0,1-11.29-2.58L6,44l1.16-6.38A18.615,18.615,0,0,1,1,24C1,12.95,11.3,4,24,4Z"/></g><path class="cls-2" d="M14,30a1,1,0,0,1-.707-1.707l8-8a1,1,0,0,1,1.414,0L27,24.586l7.293-7.293a1,1,0,0,1,1.414,1.414l-8,8a1,1,0,0,1-1.414,0L22,22.414l-7.293,7.293A1,1,0,0,1,14,30Z"/></g></svg>