<?xml version="1.0" ?><svg id="Layer_1" style="enable-background:new 0 0 50 50;" version="1.1" viewBox="0 0 50 50" xml:space="preserve" xmlns="http://www.w3.org/2000/svg" xmlns:xlink="http://www.w3.org/1999/xlink"><style type="text/css">
	.st0{fill:#F0C4DB;}
	.st1{fill:#FF9D9C;}
	.st2{fill:#9BEAF9;}
	.st3{fill:#E9F4BC;}
	.st4{fill:#505050;}
	.st5{fill:#FEBECC;}
	.st6{fill:#FFFFFF;}
	.st7{fill:#FDE4A1;}
	.st8{fill:#FEE7B5;}
	.st9{fill:#CDF6FC;}
	.st10{fill:#F2C6DD;}
	.st11{opacity:0.1;}
</style><g><path class="st10" d="M43.97,28.36c-2.45-1.39-5.26-2.2-8.26-2.23c-0.07,0-0.15,0-0.22,0c-11.6,0-21,9.4-21,21   c0,0.59,0.04,1.17,0.09,1.75h29.39V28.36z"/><g><path class="st6" d="M6.77,44.88c0,1.66,1.34,3,3,3h20.3c1.66,0,3-1.34,3-3v-3.9H6.77V44.88z"/><path class="st6" d="M33.07,4.88c0-1.66-1.34-3-3-3H9.77c-1.66,0-3,1.34-3,3v3.9h26.3V4.88z"/><rect class="st2" height="32.2" width="26.3" x="6.77" y="8.77"/><path class="st3" d="M26.85,27.09c-0.68,3.61-3.87,6.34-7.68,6.34c-4.31,0-7.81-3.5-7.81-7.82c0-3.95,2.93-7.22,6.74-7.74v9.21    H26.85z"/><path class="st1" d="M20.66,16.32v8.22h7.82v-0.4C28.47,19.82,24.97,16.32,20.66,16.32z"/><g><path class="st4" d="M6.78,29.35c0.41,0,0.75-0.33,0.75-0.75c0-0.41-0.34-0.74-0.75-0.74s-0.75,0.33-0.75,0.74     C6.03,29.02,6.36,29.35,6.78,29.35z"/><path class="st4" d="M30.07,1.12H9.78C7.7,1.13,6.03,2.81,6.03,4.87V26.6c0,0.42,0.34,0.76,0.75,0.76s0.75-0.34,0.75-0.76V9.52     h24.8v30.7H7.53v-9.62c0-0.42-0.34-0.75-0.75-0.75s-0.75,0.33-0.75,0.75v14.26c0,2.07,1.69,3.75,3.75,3.75h20.3     c2.06,0,3.75-1.68,3.75-3.75v-40C33.82,2.81,32.14,1.13,30.07,1.12z M7.53,8.02V4.87c0-1.24,1.01-2.25,2.25-2.25h20.3     c1.24,0,2.25,1.01,2.25,2.25v3.15H7.53z M30.07,47.12H9.78c-1.24,0-2.25-1.01-2.25-2.25v-3.14h24.8v3.14     C32.32,46.11,31.32,47.12,30.07,47.12z"/><path class="st4" d="M23.76,4.41h-7.67c-0.41,0-0.75,0.34-0.75,0.75s0.34,0.75,0.75,0.75h7.67c0.41,0,0.75-0.34,0.75-0.75     S24.17,4.41,23.76,4.41z"/><path class="st4" d="M19.92,42.14c-1.22,0-2.21,0.99-2.21,2.21s0.99,2.21,2.21,2.21s2.21-0.99,2.21-2.21S21.14,42.14,19.92,42.14     z M19.92,45.06c-0.39,0-0.71-0.32-0.71-0.71s0.32-0.71,0.71-0.71s0.71,0.32,0.71,0.71S20.32,45.06,19.92,45.06z"/><path class="st4" d="M18.6,17.31c-0.16-0.14-0.38-0.21-0.59-0.18c-4.21,0.57-7.39,4.22-7.39,8.48c0,4.73,3.84,8.57,8.56,8.57     c4.12,0,7.66-2.92,8.42-6.95c0.04-0.22-0.02-0.45-0.16-0.62s-0.35-0.27-0.58-0.27h-8v-8.46C18.86,17.66,18.77,17.46,18.6,17.31z      M25.89,27.84c-0.94,2.85-3.63,4.84-6.71,4.84c-3.89,0-7.06-3.17-7.06-7.07c0-3.22,2.2-6.02,5.24-6.82v8.3     c0,0.41,0.34,0.75,0.75,0.75H25.89z"/><path class="st4" d="M28.48,25.29c0.41,0,0.75-0.34,0.75-0.75v-0.4c0-4.72-3.84-8.57-8.57-8.57c-0.41,0-0.75,0.34-0.75,0.75v8.22     c0,0.41,0.34,0.75,0.75,0.75H28.48z M21.42,17.11c3.43,0.36,6.14,3.19,6.31,6.68h-6.31V17.11z"/></g></g></g></svg>